<?xml version="1.0" encoding="UTF-8"?>
<svg height="200" width="500" id="Layer_2" data-name="Layer 2" xmlns="http://www.w3.org/2000/svg" viewBox="0 0 478.38 199.83">
  <defs>
    <style>
      .cls-1 {
        fill: #1890ff;
      }

      .cls-2 {
        fill: #0999e8;
      }
    </style>
  </defs>
  <g id="Layer_1-2" data-name="Layer 1">
    <g>
      <g>
        <g>
          <path class="cls-1" d="M362.26,119.64c0,4.27,2.13,6.41,6.4,6.41h32.02v19.21h-32.02c-17.08,0-25.62-8.54-25.62-25.62v-38.42c0-17.08,8.54-25.62,25.62-25.62h32.02v19.21h-32.02c-4.27,0-6.4,2.14-6.4,6.41v38.42Z"/>
          <path class="cls-1" d="M413.49,145.26v-19.21h38.42c4.27,0,6.4-2.13,6.4-6.41v-3.2c0-4.27-2.13-6.41-6.4-6.41h-12.81c-17.08,0-25.62-8.54-25.62-25.62v-3.2c0-17.08,8.54-25.62,25.62-25.62h38.42v19.21h-38.42c-4.27,0-6.4,2.14-6.4,6.41v3.2c0,4.27,2.13,6.41,6.4,6.41h12.81c17.08,0,25.62,8.54,25.62,25.62v3.2c0,17.08-8.54,25.62-25.62,25.62h-38.42Z"/>
        </g>
        <polygon class="cls-1" points="279 55.6 259.79 55.6 259.79 145.26 279 145.26 279 90.82 311.02 145.26 329.98 145.26 279 55.6"/>
        <polygon class="cls-1" points="330.23 55.6 311.02 55.6 311.02 107.23 330.23 140.98 330.23 55.6"/>
      </g>
      <g>
        <path class="cls-2" d="M145.13,45.71v-11.31C145.13,15.43,129.69,0,110.72,0h-20.33c-18.97,0-34.4,15.43-34.4,34.4v43.36H122.71v44.31h-44.31v-32.11h-22.42v39.63c0,8.21,6.68,14.89,14.89,14.89h59.35c8.21,0,14.89-6.68,14.89-14.89V55.35H78.42c0-.21-.02-.41-.02-.61v-20.33c0-6.61,5.38-11.99,11.99-11.99h20.33c6.61,0,11.99,5.38,11.99,11.99v11.31h22.42Z"/>
        <path class="cls-1" d="M34.4,122.07c-6.61,0-11.99-5.38-11.99-11.99v-20.33c0-6.61,5.38-11.99,11.99-11.99h12.29v-22.42h-12.29C15.43,55.34,0,70.78,0,89.75v20.33c0,18.97,15.43,34.4,34.4,34.4h12.27v-22.42h-12.27Z"/>
        <path class="cls-1" d="M122.71,165.42c0,6.61-5.38,11.99-11.99,11.99h-20.33c-6.61,0-11.99-5.38-11.99-11.99v-11.8h-22.42v11.8c0,18.97,15.43,34.4,34.4,34.4h20.33c18.97,0,34.4-15.43,34.4-34.4v-11.78h-22.42v11.78Z"/>
        <path class="cls-1" d="M165.97,77.76c6.61,0,11.99,5.38,11.99,11.99v20.33c0,6.61-5.38,11.99-11.99,11.99h-11.31v22.42h11.31c18.97,0,34.4-15.43,34.4-34.4v-20.33c0-18.97-15.43-34.4-34.4-34.4h-11.29v22.42h11.29Z"/>
        <path class="cls-1" d="M100.56,85.18c-4.49,0-8.13,3.64-8.13,8.13,0,3.21,1.86,5.99,4.56,7.31v10.45c0,1.97,1.61,3.57,3.57,3.57s3.57-1.6,3.57-3.57v-10.45c2.71-1.32,4.57-4.1,4.57-7.31,0-4.49-3.64-8.13-8.14-8.13Z"/>
      </g>
    </g>
    <g>
      <path class="cls-2" d="M261.47,164.71l-.64,3.63h-2.07l1.79-10.31h3.61c1.11,0,1.99,.32,2.63,.93,.64,.62,.92,1.43,.83,2.42-.08,1.01-.5,1.82-1.26,2.42-.77,.6-1.75,.91-2.93,.91h-1.95Zm.29-1.73h1.73c.56,.01,1.02-.13,1.39-.42s.59-.68,.66-1.17c.07-.49,0-.88-.24-1.17-.23-.29-.57-.45-1.02-.47h-1.95s-.57,3.23-.57,3.23Z"/>
      <path class="cls-2" d="M275.07,164.57h-1.68l-.66,3.77h-2.07l1.79-10.31h3.41c1.14,0,2.02,.28,2.64,.81,.62,.54,.89,1.29,.82,2.24-.1,1.42-.85,2.4-2.27,2.95l1.45,4.18v.11h-2.21l-1.22-3.77Zm-1.39-1.72h1.54c.55,0,1-.14,1.36-.43,.36-.29,.57-.67,.64-1.16,.07-.46,0-.82-.22-1.08-.21-.26-.55-.4-1.01-.42h-1.77s-.54,3.09-.54,3.09Z"/>
      <path class="cls-2" d="M286.6,168.49c-.68-.01-1.29-.18-1.81-.49-.52-.31-.93-.75-1.24-1.34-.3-.58-.48-1.25-.53-2.01-.05-.77,.03-1.6,.25-2.48s.57-1.65,1.05-2.32c.48-.67,1.05-1.16,1.7-1.49,.65-.33,1.35-.49,2.11-.47,.69,.01,1.3,.18,1.82,.49,.52,.31,.93,.76,1.22,1.35,.3,.59,.47,1.25,.51,2,.05,.83-.04,1.68-.27,2.56s-.58,1.64-1.05,2.28c-.48,.64-1.04,1.12-1.67,1.44-.64,.32-1.33,.47-2.08,.46Zm2.94-5.58l.06-.67c.05-.84-.06-1.48-.34-1.91-.27-.43-.68-.66-1.24-.68-.86-.03-1.55,.35-2.06,1.15-.51,.79-.79,1.9-.86,3.33-.05,.83,.06,1.48,.33,1.93,.27,.45,.69,.69,1.25,.71,.74,.03,1.35-.26,1.84-.87s.8-1.48,.96-2.59l.05-.38Z"/>
      <path class="cls-2" d="M303.42,159.76h-3.06l-1.49,8.59h-2.08l1.49-8.59h-3.02l.3-1.72h8.16l-.3,1.72Z"/>
      <path class="cls-2" d="M312.73,163.88h-3.95l-.48,2.76h4.64l-.3,1.71h-6.72l1.79-10.31h6.71l-.3,1.72h-4.62l-.43,2.46h3.96l-.3,1.66Z"/>
      <path class="cls-2" d="M325.06,164.9c-.08,.71-.32,1.34-.73,1.89-.41,.55-.93,.97-1.59,1.27s-1.35,.44-2.11,.42c-.68-.01-1.27-.17-1.78-.47s-.9-.73-1.19-1.3c-.29-.57-.45-1.22-.49-1.96-.03-.58,.03-1.3,.18-2.17,.15-.86,.43-1.63,.82-2.3,.39-.67,.86-1.2,1.41-1.59,.77-.55,1.64-.81,2.62-.79,1.07,.02,1.91,.35,2.54,.99,.63,.64,.97,1.53,1.03,2.67h-2.07c0-.66-.13-1.13-.39-1.44-.26-.3-.66-.46-1.21-.48-.71-.02-1.29,.23-1.75,.76-.46,.53-.76,1.3-.92,2.32-.15,.99-.22,1.72-.2,2.22,.02,.62,.16,1.08,.42,1.38s.61,.45,1.07,.46c.63,.02,1.14-.13,1.52-.45s.63-.79,.75-1.39h2.06Z"/>
      <path class="cls-2" d="M337.51,159.76h-3.06l-1.49,8.59h-2.08l1.49-8.59h-3.02l.3-1.72h8.16l-.3,1.72Z"/>
      <path class="cls-2" d="M350.3,162.67l2.88-4.63h2.38l-4.5,6.68-.62,3.62h-2.11l.67-3.86-2.14-6.44h2.19s1.25,4.62,1.25,4.62Z"/>
      <path class="cls-2" d="M361.37,168.49c-.68-.01-1.29-.18-1.81-.49-.52-.31-.93-.75-1.24-1.34-.3-.58-.48-1.25-.53-2.01-.05-.77,.03-1.6,.25-2.48s.57-1.65,1.05-2.32c.48-.67,1.05-1.16,1.7-1.49,.65-.33,1.35-.49,2.11-.47,.69,.01,1.3,.18,1.82,.49,.52,.31,.93,.76,1.22,1.35,.3,.59,.47,1.25,.51,2,.05,.83-.04,1.68-.27,2.56s-.58,1.64-1.05,2.28c-.48,.64-1.04,1.12-1.67,1.44-.64,.32-1.33,.47-2.08,.46Zm2.94-5.58l.06-.67c.05-.84-.06-1.48-.34-1.91-.27-.43-.68-.66-1.24-.68-.86-.03-1.55,.35-2.06,1.15-.51,.79-.79,1.9-.86,3.33-.05,.83,.06,1.48,.33,1.93,.27,.45,.69,.69,1.25,.71,.74,.03,1.35-.26,1.84-.87s.8-1.48,.96-2.59l.05-.38Z"/>
      <path class="cls-2" d="M379.17,158.03l-1.16,6.8c-.16,1.14-.63,2.04-1.42,2.7-.78,.66-1.76,.98-2.92,.96-.73-.01-1.36-.17-1.89-.48-.54-.3-.93-.73-1.19-1.29-.25-.55-.34-1.18-.26-1.89l1.15-6.8h2.07l-1.15,6.81c-.03,.26-.04,.51,0,.74,.09,.76,.55,1.16,1.37,1.19,.59,.02,1.06-.14,1.44-.48s.61-.83,.72-1.46l1.16-6.8h2.08Z"/>
      <path class="cls-2" d="M386.27,164.57h-1.68l-.66,3.77h-2.07l1.79-10.31h3.41c1.14,0,2.02,.28,2.64,.81,.62,.54,.89,1.29,.82,2.24-.1,1.42-.85,2.4-2.27,2.95l1.45,4.18v.11h-2.21l-1.22-3.77Zm-1.39-1.72h1.54c.55,0,1-.14,1.36-.43,.36-.29,.57-.67,.64-1.16,.07-.46,0-.82-.22-1.08-.21-.26-.55-.4-1.01-.42h-1.77s-.54,3.09-.54,3.09Z"/>
      <path class="cls-2" d="M405.66,165.59c.1-.56-.18-.99-.83-1.29l-1.37-.54c-1.59-.71-2.34-1.68-2.26-2.92,.03-.58,.22-1.09,.57-1.53,.34-.44,.83-.79,1.45-1.04,.62-.25,1.29-.37,2.02-.36,1,.02,1.8,.32,2.41,.89s.92,1.34,.91,2.3h-2.07c.02-.47-.08-.83-.31-1.09-.23-.26-.58-.39-1.07-.4-.47,0-.88,.1-1.23,.32-.35,.22-.56,.53-.62,.92-.09,.51,.25,.92,1.03,1.22l.93,.35,.54,.25c1.39,.69,2.04,1.66,1.95,2.9-.04,.61-.24,1.13-.58,1.58-.35,.44-.82,.78-1.42,1.02-.6,.24-1.25,.35-1.97,.33-.73-.01-1.38-.17-1.95-.46s-1-.71-1.3-1.24c-.28-.5-.41-1.06-.39-1.7h2.07c-.07,1.13,.48,1.69,1.65,1.71,.5,0,.92-.11,1.25-.33s.52-.52,.58-.88Z"/>
      <path class="cls-2" d="M420.86,158.03l-1.16,6.8c-.16,1.14-.63,2.04-1.42,2.7-.78,.66-1.76,.98-2.92,.96-.73-.01-1.36-.17-1.89-.48-.54-.3-.93-.73-1.19-1.29-.25-.55-.34-1.18-.26-1.89l1.15-6.8h2.07l-1.15,6.81c-.03,.26-.04,.51,0,.74,.09,.76,.55,1.16,1.37,1.19,.59,.02,1.06-.14,1.44-.48s.61-.83,.72-1.46l1.16-6.8h2.08Z"/>
      <path class="cls-2" d="M431.95,164.9c-.08,.71-.32,1.34-.73,1.89-.41,.55-.93,.97-1.59,1.27s-1.35,.44-2.11,.42c-.68-.01-1.27-.17-1.78-.47s-.9-.73-1.19-1.3c-.29-.57-.45-1.22-.49-1.96-.03-.58,.03-1.3,.18-2.17,.15-.86,.43-1.63,.82-2.3,.39-.67,.86-1.2,1.41-1.59,.77-.55,1.64-.81,2.62-.79,1.07,.02,1.91,.35,2.54,.99,.63,.64,.97,1.53,1.03,2.67h-2.07c0-.66-.13-1.13-.39-1.44-.26-.3-.66-.46-1.21-.48-.71-.02-1.29,.23-1.75,.76-.46,.53-.76,1.3-.92,2.32-.15,.99-.22,1.72-.2,2.22,.02,.62,.16,1.08,.42,1.38s.61,.45,1.07,.46c.63,.02,1.14-.13,1.52-.45s.63-.79,.75-1.39h2.06Z"/>
      <path class="cls-2" d="M443.98,164.9c-.08,.71-.32,1.34-.73,1.89-.41,.55-.93,.97-1.59,1.27s-1.35,.44-2.11,.42c-.68-.01-1.27-.17-1.78-.47s-.9-.73-1.19-1.3c-.29-.57-.45-1.22-.49-1.96-.03-.58,.03-1.3,.18-2.17,.15-.86,.43-1.63,.82-2.3,.39-.67,.86-1.2,1.41-1.59,.77-.55,1.64-.81,2.62-.79,1.07,.02,1.91,.35,2.54,.99,.63,.64,.97,1.53,1.03,2.67h-2.07c0-.66-.13-1.13-.39-1.44-.26-.3-.66-.46-1.21-.48-.71-.02-1.29,.23-1.75,.76-.46,.53-.76,1.3-.92,2.32-.15,.99-.22,1.72-.2,2.22,.02,.62,.16,1.08,.42,1.38s.61,.45,1.07,.46c.63,.02,1.14-.13,1.52-.45s.63-.79,.75-1.39h2.06Z"/>
      <path class="cls-2" d="M454.41,163.88h-3.95l-.48,2.76h4.64l-.3,1.71h-6.72l1.79-10.31h6.71l-.3,1.72h-4.62l-.43,2.46h3.96l-.3,1.66Z"/>
      <path class="cls-2" d="M464.01,165.59c.1-.56-.18-.99-.83-1.29l-1.37-.54c-1.59-.71-2.34-1.68-2.26-2.92,.03-.58,.22-1.09,.57-1.53,.34-.44,.83-.79,1.45-1.04,.62-.25,1.29-.37,2.02-.36,1,.02,1.8,.32,2.41,.89s.92,1.34,.91,2.3h-2.07c.02-.47-.08-.83-.31-1.09-.23-.26-.58-.39-1.07-.4-.47,0-.88,.1-1.23,.32-.35,.22-.56,.53-.62,.92-.09,.51,.25,.92,1.03,1.22l.93,.35,.54,.25c1.39,.69,2.04,1.66,1.95,2.9-.04,.61-.24,1.13-.58,1.58-.35,.44-.82,.78-1.42,1.02-.6,.24-1.25,.35-1.97,.33-.73-.01-1.38-.17-1.95-.46s-1-.71-1.3-1.24c-.28-.5-.41-1.06-.39-1.7h2.07c-.07,1.13,.48,1.69,1.65,1.71,.5,0,.92-.11,1.25-.33s.52-.52,.58-.88Z"/>
      <path class="cls-2" d="M475.48,165.59c.1-.56-.18-.99-.83-1.29l-1.37-.54c-1.59-.71-2.34-1.68-2.26-2.92,.03-.58,.22-1.09,.57-1.53,.34-.44,.83-.79,1.45-1.04,.62-.25,1.29-.37,2.02-.36,1,.02,1.8,.32,2.41,.89s.92,1.34,.91,2.3h-2.07c.02-.47-.08-.83-.31-1.09-.23-.26-.58-.39-1.07-.4-.47,0-.88,.1-1.23,.32-.35,.22-.56,.53-.62,.92-.09,.51,.25,.92,1.03,1.22l.93,.35,.54,.25c1.39,.69,2.04,1.66,1.95,2.9-.04,.61-.24,1.13-.58,1.58-.35,.44-.82,.78-1.42,1.02-.6,.24-1.25,.35-1.97,.33-.73-.01-1.38-.17-1.95-.46s-1-.71-1.3-1.24c-.28-.5-.41-1.06-.39-1.7h2.07c-.07,1.13,.48,1.69,1.65,1.71,.5,0,.92-.11,1.25-.33s.52-.52,.58-.88Z"/>
    </g>
  </g>
</svg>