<svg width="40" height="40" viewBox="0 0 40 40" fill="none" xmlns="http://www.w3.org/2000/svg">
<rect x="0.489746" width="39.5102" height="39.5102" rx="4.93878" fill="#101016"/>
<path fill-rule="evenodd" clip-rule="evenodd" d="M15.9328 25.8964C15.7551 26.0739 15.514 26.1735 15.2628 26.1733C15.0115 26.1732 14.7707 26.0732 14.5931 25.8954C14.4156 25.7177 14.316 25.4767 14.3161 25.2255C14.3163 24.9742 14.4163 24.7334 14.5941 24.5559L23.4308 15.7198L18.1893 15.7198C17.9382 15.7198 17.6974 15.62 17.5199 15.4425C17.3423 15.2649 17.2426 15.0242 17.2426 14.7731C17.2426 14.522 17.3423 14.2812 17.5199 14.1037C17.6974 13.9261 17.9382 13.8264 18.1893 13.8264L25.7163 13.8264C25.9674 13.8264 26.2082 13.9261 26.3858 14.1037C26.5633 14.2812 26.6631 14.522 26.6631 14.7731L26.6631 22.2992C26.6631 22.5503 26.5633 22.7911 26.3858 22.9686C26.2082 23.1461 25.9674 23.2459 25.7163 23.2459C25.4652 23.2459 25.2244 23.1461 25.0468 22.9686C24.8693 22.7911 24.7695 22.5503 24.7695 22.2992L24.7695 17.0584L15.9328 25.8964Z" fill="white" fill-opacity="0.7"/>
</svg>
